<?xml version="1.0" encoding="UTF-8" standalone="no"?>
<!-- Created with Inkscape (http://www.inkscape.org/) -->

<svg
   width="375.10248"
   height="80.000015"
   viewBox="0 0 99.245859 21.166671"
   version="1.1"
   id="svg5"
   xml:space="preserve"
   xmlns:xlink="http://www.w3.org/1999/xlink"
   xmlns="http://www.w3.org/2000/svg"
   xmlns:svg="http://www.w3.org/2000/svg"><defs
     id="defs2"><linearGradient
       id="linearGradient7784"><stop
         style="stop-color:#9b80ff;stop-opacity:1;"
         offset="0"
         id="stop7780" /><stop
         style="stop-color:#ffe680;stop-opacity:1;"
         offset="1"
         id="stop7782" /></linearGradient><linearGradient
       id="linearGradient7724"><stop
         style="stop-color:#ffe680;stop-opacity:1;"
         offset="0"
         id="stop7720" /><stop
         style="stop-color:#9b80ff;stop-opacity:1;"
         offset="1"
         id="stop7722" /></linearGradient><linearGradient
       id="linearGradient6966"><stop
         style="stop-color:#ffe680;stop-opacity:1;"
         offset="0"
         id="stop6962" /><stop
         style="stop-color:#9b80ff;stop-opacity:1;"
         offset="1"
         id="stop6964" /></linearGradient><linearGradient
       id="linearGradient6061"><stop
         style="stop-color:#ffe680;stop-opacity:1;"
         offset="0"
         id="stop6057" /><stop
         style="stop-color:#9b80ff;stop-opacity:1;"
         offset="1"
         id="stop6059" /></linearGradient><linearGradient
       id="linearGradient6053"><stop
         style="stop-color:#ffe680;stop-opacity:1;"
         offset="0"
         id="stop6049" /><stop
         style="stop-color:#9b80ff;stop-opacity:1;"
         offset="1"
         id="stop6051" /></linearGradient><linearGradient
       id="linearGradient1251"><stop
         style="stop-color:#9b80ff;stop-opacity:1;"
         offset="0"
         id="stop1247" /><stop
         style="stop-color:#ffe680;stop-opacity:1;"
         offset="1"
         id="stop1249" /></linearGradient><linearGradient
       id="linearGradient479"><stop
         style="stop-color:#9b80ff;stop-opacity:1;"
         offset="0"
         id="stop475" /><stop
         style="stop-color:#ffe680;stop-opacity:1;"
         offset="1"
         id="stop477" /></linearGradient><linearGradient
       xlink:href="#linearGradient479"
       id="linearGradient481"
       x1="100.54166"
       y1="76.729164"
       x2="116.41666"
       y2="55.5625"
       gradientUnits="userSpaceOnUse" /><linearGradient
       xlink:href="#linearGradient1251"
       id="linearGradient1253"
       x1="93.927086"
       y1="55.5625"
       x2="109.80208"
       y2="76.729164"
       gradientUnits="userSpaceOnUse" /><linearGradient
       xlink:href="#linearGradient6053"
       id="linearGradient6055"
       x1="50.319378"
       y1="55.52483"
       x2="50.319378"
       y2="71.068886"
       gradientUnits="userSpaceOnUse" /><linearGradient
       xlink:href="#linearGradient6061"
       id="linearGradient6063"
       x1="48.702705"
       y1="65.75679"
       x2="58.522339"
       y2="76.38459"
       gradientUnits="userSpaceOnUse" /><linearGradient
       xlink:href="#linearGradient6966"
       id="linearGradient6968"
       x1="18.956711"
       y1="55.520035"
       x2="18.683989"
       y2="76.992531"
       gradientUnits="userSpaceOnUse" /><linearGradient
       xlink:href="#linearGradient7724"
       id="linearGradient7726"
       x1="71.744987"
       y1="55.512177"
       x2="71.777985"
       y2="71.128532"
       gradientUnits="userSpaceOnUse" /><linearGradient
       xlink:href="#linearGradient7784"
       id="linearGradient7786"
       x1="68.719208"
       y1="73.861397"
       x2="87.733566"
       y2="73.861397"
       gradientUnits="userSpaceOnUse" /></defs><g
     id="layer1"
     transform="translate(-15.847898,-55.562498)"><path
       style="display:none;fill:#000000;stroke-width:0.125927"
       d="m 21.868241,76.638657 c -0.02309,-0.055 -1.387815,-1.307497 -3.032731,-2.783335 l -2.990755,-2.683343 v -4.99725 -4.997251 l 3.078157,-2.797241 3.078156,-2.79724 h 5.484849 5.484848 v 2.833347 2.833346 H 27.49296 22.015155 v 4.911134 4.911134 h 5.477805 5.477805 v 2.833347 2.833347 H 27.44049 c -3.04165,0 -5.549162,-0.045 -5.572249,-0.1 z"
       id="path188" /><path
       style="display:none;fill:#000000;stroke-width:0.125927"
       d="M 48.647894,74.049856 C 47.53974,72.700507 46.56001,71.4929 46.470714,71.366287 46.330572,71.167574 46.459774,70.75606 47.415163,68.358216 l 1.106804,-2.777863 2.088047,-0.03969 c 2.065983,-0.03927 2.09293,-0.04341 2.550145,-0.392491 0.618511,-0.472228 0.888253,-1.02058 0.881119,-1.791212 -0.0072,-0.778503 -0.276009,-1.322756 -0.88144,-1.784676 l -0.462419,-0.352807 -5.519224,-0.03529 -5.519225,-0.03529 v -2.83854 -2.761854 l 5.701446,0.014 h 5.820833 l 1.034425,0.345508 c 1.243634,0.415385 2.701001,1.357343 3.502735,2.263966 0.766664,0.866966 1.642437,2.680444 1.832936,3.795492 0.174443,1.021063 0.0834,2.753417 -0.190849,3.631715 -0.761355,2.438228 -2.809816,4.512549 -5.180719,5.246119 l -0.645638,0.199763 2.507713,2.737244 2.507714,2.737243 -3.943424,-0.0082 -3.943424,-0.0082 -2.014824,-2.453362 z"
       id="path290-1" /><path
       style="display:none;fill:#000000;stroke-width:0.125927"
       d="m 71.75644,73.84344 -3.047631,-2.774891 0.03245,-7.708491 0.05041,-7.797559 h 3.175 2.910416 v 7.74672 l 0.0041,7.768347 h 3.400017 3.400016 v -7.74448 -7.744481 l 2.985487,-0.02611 3.058988,0.02611 v 7.796654 7.796656 l -2.990756,2.717662 -2.990755,2.71766 -3.470035,5.04e-4 -3.470035,5.92e-4 z"
       id="path288-3" /><g
       id="g13607"
       transform="translate(-1.3229165)"><path
         style="fill:url(#linearGradient1253);fill-opacity:1;stroke-width:0.264583"
         d="m 93.927082,55.562499 15.874998,21.166667 h 6.61459 l -15.875,-21.166667 z"
         id="path411" /><path
         style="fill:url(#linearGradient481);fill-opacity:1;stroke-width:0.264583"
         d="m 93.927082,76.729166 h 6.614588 l 15.875,-21.166667 h -6.61459 z"
         id="path413" /></g><g
       id="g13612"><path
         style="fill:url(#linearGradient6968);fill-opacity:1;stroke-width:0.264583"
         d="m 22.000695,55.568471 0.009,21.158724 -6.136236,-5.539291 -0.02556,-9.994423 z"
         id="path4949" /><rect
         style="fill:#9b80ff;fill-opacity:1;stroke-width:0.263408"
         id="rect5107"
         width="10.998326"
         height="5.6934643"
         x="22.00569"
         y="55.579052" /><rect
         style="fill:#9b80ff;fill-opacity:1;stroke-width:0.263408"
         id="rect5107-9"
         width="10.998326"
         height="5.6934643"
         x="22.004673"
         y="71.025101" /></g><g
       id="g13598"
       transform="translate(-0.64153785,0.0052603)"><path
         style="fill:url(#linearGradient6063);fill-opacity:1;stroke-width:0.264583"
         d="m 48.515132,65.564445 c -0.02556,0.05112 -2.198261,5.649022 -2.198261,5.649022 l 4.33262,5.278386 7.872846,0.01278 z"
         id="path5185" /><path
         style="fill:url(#linearGradient6055);fill-opacity:1;stroke-width:0.264583"
         d="m 41.664733,61.116799 11.016875,0.102243 c 2.182235,1.330992 1.493883,3.508716 0,4.291941 l -4.16968,0.06326 5.015669,5.467533 C 60.690832,69.89807 62.83438,58.329662 53.19283,55.557239 H 41.651954 Z"
         id="path5913" /></g><g
       id="g13603"
       transform="translate(-2.5626407,0.018039)"><path
         style="fill:url(#linearGradient7786);fill-opacity:1;stroke-width:0.264583"
         d="m 68.719207,71.086963 6.109176,5.530795 6.940603,0.01807 5.964581,-5.494645 z"
         id="path5969" /><rect
         style="fill:url(#linearGradient7726);fill-opacity:1;stroke-width:0.266508"
         id="rect6023"
         width="6.1783204"
         height="15.551789"
         x="68.708473"
         y="55.54446" /><rect
         style="fill:#9b80ff;fill-opacity:1;stroke-width:0.266508"
         id="rect6023-3"
         width="6.1783204"
         height="15.551789"
         x="81.569496"
         y="55.590286" /></g></g></svg>
